# xmcd
#
# Track frame offsets:
#	150
#	11447
#	27376
#	37261
#	50856
#	67925
#	78200
#	92505
#	108634
#	122004
#	136373
#
# Disc length: 1984 seconds
#
# Revision: 1
# Processed by: cddbd v1.5.2PL0 Copyright (c) Steve Scherf et al.
# Submitted via: audiograbber 1.83.01
#
DISCID=9007be0b
DTITLE=Dale Watson - Christmas Time In Texas
DYEAR=1900
DGENRE=Country
TTITLE0=Honky Tonk Christmas
TTITLE1=Christmas Love
TTITLE2=Santa Bring Her Back
TTITLE3=Christmas Without An Angel
TTITLE4=Christmas Time In Texas
TTITLE5=Christmas With You
TTITLE6=The Christmas Song
TTITLE7=Hot Texas Christmas Day
TTITLE8=Santa And My Semi
TTITLE9=Christmas In Vegas
TTITLE10=Silver Bells
EXTD=
EXTT0=
EXTT1=
EXTT2=
EXTT3=
EXTT4=
EXTT5=
EXTT6=
EXTT7=
EXTT8=
EXTT9=
EXTT10=
PLAYORDER=
